HIERARCHY
ROOT SpineBase
{
  OFFSET 0.000000 0.000000 0.000000
  CHANNELS 6 Xposition Yposition Zposition Zrotation Xrotation Yrotation
  JOINT SpineMid
  {
    OFFSET 0.000000 28.716217 0.000000
    CHANNELS 3 Zrotation Xrotation Yrotation
    JOINT SpineShoulder
    {
      OFFSET -0.093312 21.343729 -0.626736
      CHANNELS 3 Zrotation Xrotation Yrotation
      JOINT Neck
      {
        OFFSET -0.024806 7.060144 -0.486469
        CHANNELS 3 Zrotation Xrotation Yrotation
        JOINT Head
        {
          OFFSET 1.296563 14.445705 -1.209090
          CHANNELS 3 Zrotation Xrotation Yrotation
          End Site
          {
            OFFSET 0 0 0
          }
        }
      }
      JOINT ShoulderLeft
      {
        OFFSET -14.435423 -1.365424 -7.511497
        CHANNELS 3 Zrotation Xrotation Yrotation
        JOINT ElbowLeft
        {
          OFFSET -4.793328 -27.192220 -1.569402
          CHANNELS 3 Zrotation Xrotation Yrotation
          JOINT WristLeft
          {
            OFFSET 1.173674 -20.159920 -5.094077
            CHANNELS 3 Zrotation Xrotation Yrotation
            JOINT HandLeft
            {
              OFFSET 0.875075 -2.801823 1.046246
              CHANNELS 3 Zrotation Xrotation Yrotation
              JOINT HandTipLeft
              {
                OFFSET -0.435185 -7.541514 -1.031876
                CHANNELS 3 Zrotation Xrotation Yrotation
                End Site
                {
                  OFFSET 0 0 0
                }
              }
              JOINT ThumbLeft
              {
                OFFSET -2.677368 0.160115 -2.484338
                CHANNELS 3 Zrotation Xrotation Yrotation
                End Site
                {
                  OFFSET 0 0 0
                }
              }
            }
          }
        }
      }
      JOINT ShoulderRight
      {
        OFFSET 14.965104 -3.160214 6.169305
        CHANNELS 3 Zrotation Xrotation Yrotation
        JOINT ElbowRight
        {
          OFFSET 1.849505 -26.860250 5.944284
          CHANNELS 3 Zrotation Xrotation Yrotation
          JOINT WristRight
          {
            OFFSET 1.276960 -24.794981 -5.680729
            CHANNELS 3 Zrotation Xrotation Yrotation
            JOINT HandRight
            {
              OFFSET -1.979251 -5.125567 -1.696023
              CHANNELS 3 Zrotation Xrotation Yrotation
              JOINT HandTipRight
              {
                OFFSET -1.000868 -7.464523 -2.452939
                CHANNELS 3 Zrotation Xrotation Yrotation
                End Site
                {
                  OFFSET 0 0 0
                }
              }
              JOINT ThumbRight
              {
                OFFSET 1.563809 1.247028 1.177492
                CHANNELS 3 Zrotation Xrotation Yrotation
                End Site
                {
                  OFFSET 0 0 0
                }
              }
            }
          }
        }
      }
    }
  }
  JOINT HipLeft
  {
    OFFSET -6.444911 0.711248 -5.944690
    CHANNELS 3 Zrotation Xrotation Yrotation
    JOINT KneeLeft
    {
      OFFSET -4.384987 -26.600350 3.367469
      CHANNELS 3 Zrotation Xrotation Yrotation
      JOINT AnkleLeft
      {
        OFFSET -3.185041 -31.378924 6.874576
        CHANNELS 3 Zrotation Xrotation Yrotation
        JOINT FootLeft
        {
          OFFSET 5.889273 -2.454053 -13.748996
          CHANNELS 3 Zrotation Xrotation Yrotation
          End Site
          {
            OFFSET 0 0 0
          }
        }
      }
    }
  }
  JOINT HipRight
  {
    OFFSET 7.231668 0.870037 -0.686284
    CHANNELS 3 Zrotation Xrotation Yrotation
    JOINT KneeRight
    {
      OFFSET 0.836537 -28.284557 3.728747
      CHANNELS 3 Zrotation Xrotation Yrotation
      JOINT AnkleRight
      {
        OFFSET 1.634122 -33.877020 4.147133
        CHANNELS 3 Zrotation Xrotation Yrotation
        JOINT FootRight
        {
          OFFSET 4.456063 -3.367843 -12.222602
          CHANNELS 3 Zrotation Xrotation Yrotation
          End Site
          {
            OFFSET 0 0 0
          }
        }
      }
    }
  }
}
MOTION
Frames: 10
Frame Time: 0.033333
-43.245552 68.484769 371.180491 -2.927770 -12.513305 -9.416059 -0.627935 -1.665550 8.971346 0.137871 -0.446643 -0.158845 0.452554 1.235389 1.195751 0.000000 0.000000 0.000000 -2.827858 0.297475 3.560272 -5.183773 -2.285972 -0.428141 -12.418777 28.010970 0.256058 25.099595 -24.425647 8.793606 0.000000 0.000000 0.000000 0.000000 0.000000 0.000000 112.163414 20.599260 -13.104939 -9.262439 -15.314342 -39.463195 -7.376629 25.164257 -74.324594 -1.056172 4.473204 25.952308 0.000000 0.000000 0.000000 0.000000 0.000000 0.000000 -3.889093 17.698316 8.859338 3.233079 -2.227965 1.081938 -4.833889 -12.526668 17.925279 0.000000 0.000000 0.000000 -1.418015 12.312783 9.189409 -0.559423 2.945178 0.168387 -3.579358 -17.153611 7.237923 0.000000 0.000000 0.000000
-43.096938 68.390211 370.985846 -2.767588 -12.918852 -8.524108 -0.262945 -1.277929 8.073597 0.194369 -0.247588 -0.129804 0.114669 -1.057616 1.354102 0.000000 0.000000 0.000000 -3.364984 -2.316924 3.884240 -6.150302 -1.984106 -0.489995 -11.365891 27.309111 -0.973456 23.946734 -22.772904 9.050394 0.000000 0.000000 0.000000 0.000000 0.000000 0.000000 113.051296 20.655421 -13.336808 -10.615471 -15.377606 -39.943861 -34.301714 56.068336 -81.330462 38.165500 25.568796 52.172197 0.000000 0.000000 0.000000 0.000000 0.000000 0.000000 -3.623262 17.476671 8.029842 2.888896 -1.427387 0.861454 -4.691996 -12.789297 18.830724 0.000000 0.000000 0.000000 -1.284517 12.247741 8.274381 -0.877725 3.179825 0.147212 -2.352366 -9.396556 14.393682 0.000000 0.000000 0.000000
-42.916647 68.318834 370.786398 -2.481046 -13.209141 -7.810116 0.000015 -1.134967 7.377127 0.233680 -0.267671 -0.108516 -0.263833 -2.637143 1.506299 0.000000 0.000000 0.000000 -3.497554 -4.352379 4.157007 -7.427185 -2.389595 -0.538189 -9.178804 27.499102 -1.810063 22.806271 -22.341534 8.993064 0.000000 0.000000 0.000000 0.000000 0.000000 0.000000 113.490078 20.476011 -13.602001 -12.398964 -14.735493 -40.617238 -32.188498 59.101835 -84.913647 49.799790 26.158707 61.071344 0.000000 0.000000 0.000000 0.000000 0.000000 0.000000 -3.547055 17.192787 7.405087 2.434216 -0.751987 0.636659 -4.439927 -13.031782 19.916103 0.000000 0.000000 0.000000 -1.314501 12.150698 7.578112 -1.250418 3.333727 0.119505 -1.991255 -6.045879 17.530670 0.000000 0.000000 0.000000
-42.790198 68.283638 370.649617 -2.075852 -13.346219 -7.138518 0.176432 -1.090921 6.750483 0.288704 -0.262281 -0.086897 0.106482 -3.291837 1.583331 0.000000 0.000000 0.000000 -3.518334 -6.166557 4.382061 -8.194330 -2.690401 -0.718460 -7.014143 28.145647 -2.112779 21.702055 -20.917264 8.468137 0.000000 0.000000 0.000000 0.000000 0.000000 0.000000 112.848639 21.164304 -14.632839 -12.483566 -14.808132 -40.322560 -33.001900 51.368707 -77.197484 47.990438 22.115081 56.808508 0.000000 0.000000 0.000000 0.000000 0.000000 0.000000 -3.467454 17.079992 6.793914 1.877445 -0.445125 0.467368 -4.191276 -13.177081 20.449488 0.000000 0.000000 0.000000 -1.342200 12.097906 6.954068 -1.812246 3.302276 0.059807 -1.850979 -7.834280 16.492343 0.000000 0.000000 0.000000
-42.708290 68.295708 370.587526 -1.633193 -13.335315 -6.480982 0.268828 -1.061576 6.153811 0.302961 -0.217050 -0.064496 1.539540 -3.038522 1.556575 0.000000 0.000000 0.000000 -3.401407 -7.612609 4.523765 -8.611381 -2.968354 -0.948299 -4.597914 29.634294 -1.827190 20.904612 -23.141453 7.800089 0.000000 0.000000 0.000000 0.000000 0.000000 0.000000 110.918106 21.422293 -14.486312 -12.070830 -13.992219 -40.284984 -36.470139 46.154076 -69.037749 46.507326 20.247629 50.611118 0.000000 0.000000 0.000000 0.000000 0.000000 0.000000 -3.364857 17.080612 6.162235 1.264987 -0.366406 0.333915 -3.941416 -13.282720 20.912734 0.000000 0.000000 0.000000 -1.416946 12.068409 6.363386 -2.319915 3.110670 -0.007451 -1.926354 -10.622345 14.837527 0.000000 0.000000 0.000000
-42.651940 68.323467 370.580442 -1.322916 -13.347231 -5.674278 0.384051 -1.005745 5.384889 0.287420 -0.080517 -0.044125 3.411945 -3.766493 1.615050 0.000000 0.000000 0.000000 -2.917906 -9.157592 4.647363 -9.134175 -2.451486 -1.003857 -2.244512 32.441170 -0.846345 17.833270 -28.454155 6.689338 0.000000 0.000000 0.000000 0.000000 0.000000 0.000000 109.367309 21.291752 -13.787077 -12.151935 -12.635509 -40.789432 -22.720880 22.442571 -56.339613 26.656343 7.614330 36.372500 0.000000 0.000000 0.000000 0.000000 0.000000 0.000000 -3.014021 17.242953 5.321783 0.570834 -0.402554 0.204121 -3.704562 -13.395698 21.614261 0.000000 0.000000 0.000000 -1.450945 12.096730 5.602496 -2.696160 2.919324 -0.060111 -2.425337 -15.425356 11.587661 0.000000 0.000000 0.000000
-42.608537 68.237820 370.586705 -1.033434 -13.275939 -4.760346 0.520018 -0.616422 4.505561 0.178280 0.146596 -0.017497 6.611261 -3.758676 1.579488 0.000000 0.000000 0.000000 -2.537007 -10.540402 4.673351 -9.185736 -1.674512 -1.087400 -2.176661 37.168123 1.692753 15.807849 -33.404030 5.162744 0.000000 0.000000 0.000000 0.000000 0.000000 0.000000 107.542365 21.046781 -12.227633 -12.601622 -11.405447 -41.071875 -1.185783 -3.821064 -31.396724 -4.600051 5.525372 9.650651 0.000000 0.000000 0.000000 0.000000 0.000000 0.000000 -2.736404 17.413682 4.364288 0.090601 -0.587612 0.135177 -3.538286 -13.367028 22.293874 0.000000 0.000000 0.000000 -1.707046 12.056115 4.750939 -2.490775 2.602982 -0.063867 -2.795007 -16.537720 11.115725 0.000000 0.000000 0.000000
-42.668195 68.169417 370.520954 -0.691442 -12.900321 -3.742521 0.634321 -0.237507 3.534814 0.097190 0.306805 0.005780 9.938095 -3.714037 1.576562 0.000000 0.000000 0.000000 -2.059662 -11.655149 4.620358 -9.645570 -2.056029 -1.150165 -3.612635 47.584981 7.505440 16.733047 -41.416206 3.440041 0.000000 0.000000 0.000000 0.000000 0.000000 0.000000 105.267828 21.425944 -11.107724 -11.852366 -11.473612 -40.373429 5.801062 -11.608372 -17.679696 -15.155135 10.991064 -1.688173 0.000000 0.000000 0.000000 0.000000 0.000000 0.000000 -2.494937 17.287133 3.298164 -0.197840 -0.906041 0.122640 -3.509256 -13.098986 22.954839 0.000000 0.000000 0.000000 -1.882592 11.677969 3.783684 -2.229990 2.223986 -0.069783 -2.632611 -13.314349 14.241273 0.000000 0.000000 0.000000
-42.852834 68.186770 370.342780 -0.409995 -12.259338 -2.431671 0.637307 0.006707 2.272400 -0.012181 0.394008 0.021143 13.752356 -3.346076 1.553332 0.000000 0.000000 0.000000 -1.390529 -12.238707 4.476700 -10.098112 -2.600324 -1.143534 -10.292860 58.340514 17.230408 15.124071 -50.990425 0.634373 0.000000 0.000000 0.000000 0.000000 0.000000 0.000000 102.910823 21.978810 -10.110603 -9.890434 -11.891894 -39.498603 5.281038 -13.853144 -13.176863 -17.794033 12.820614 -3.993822 0.000000 0.000000 0.000000 0.000000 0.000000 0.000000 -1.951735 16.834342 1.894496 -0.522613 -1.173424 0.103923 -3.552536 -12.695172 23.486721 0.000000 0.000000 0.000000 -1.834957 10.850854 2.474863 -1.923942 2.047332 -0.056469 -2.901845 -11.893814 15.528821 0.000000 0.000000 0.000000
-43.187685 68.250157 370.106058 -0.024784 -11.366736 -1.177804 0.571953 0.301950 1.084310 -0.123099 0.460214 0.034842 17.341325 -2.538449 1.476508 0.000000 0.000000 0.000000 -0.527311 -12.627443 4.254686 -10.930793 -3.835516 -1.052524 -37.652159 69.230994 45.636948 15.296517 -62.423825 -2.260566 0.000000 0.000000 0.000000 0.000000 0.000000 0.000000 100.883269 22.244600 -8.551063 -8.506549 -12.136692 -38.930867 5.604755 -13.534359 -13.592302 -23.741206 9.251344 -0.905878 0.000000 0.000000 0.000000 0.000000 0.000000 0.000000 -1.417347 16.118644 0.556920 -0.877964 -1.542184 0.098755 -3.680691 -12.091882 23.988759 0.000000 0.000000 0.000000 -1.807403 9.649593 1.226090 -1.597368 2.076305 -0.029445 -3.759956 -14.374722 13.305508 0.000000 0.000000 0.000000
